<svg width="20" height="21" viewBox="0 0 20 21" fill="none" xmlns="http://www.w3.org/2000/svg">
<g clip-path="url(#clip0_1_527)">
<path d="M0.269577 14.2615H10.1102V16.0696H16.2616V14.2654H18.7055C18.8638 16.4157 18.8763 18.3303 16.6708 19.7896C16.6439 19.8074 16.6222 19.8317 16.5624 19.8849C16.8337 20.1101 17.101 20.3328 17.3657 20.5528C17.0084 20.8943 16.7214 21.1689 16.3923 21.4841C16.102 21.1846 15.7881 20.8372 15.4459 20.5206C15.3454 20.4274 15.1674 20.3893 15.0216 20.3801C14.7832 20.3656 14.5415 20.4044 14.3011 20.405C11.1059 20.407 7.9106 20.4063 4.71469 20.4063C4.56166 20.4063 4.39812 20.4359 4.25691 20.3932C3.83066 20.2651 3.56006 20.4628 3.30654 20.7682C3.09046 21.0283 2.84417 21.2628 2.61889 21.5005C2.3148 21.1807 2.03961 20.8917 1.73486 20.5705C1.93912 20.3899 2.19855 20.16 2.49016 19.9013C2.28919 19.7574 2.13878 19.6576 1.99626 19.5473C0.928331 18.7243 0.351018 17.6327 0.275488 16.2922C0.238052 15.6282 0.26892 14.9603 0.26892 14.2615H0.269577Z" fill="black"/>
<path d="M0.275481 9.28721C0.270227 9.16834 0.261032 9.06128 0.261032 8.95423C0.260376 7.21375 0.258405 5.47393 0.261032 3.73345C0.263659 1.8209 1.59102 0.486313 3.50095 0.500106C4.14197 0.504703 4.80269 0.491568 5.41875 0.636717C6.51164 0.894833 7.19995 1.65276 7.53228 2.72069C7.59665 2.92824 7.68006 3.02872 7.90796 3.09046C9.19395 3.43921 10.0964 4.64113 10.1128 5.98228C10.1154 6.19836 10.1128 6.41444 10.1128 6.64891H4.02572C3.73542 5.11401 4.56953 3.52985 6.31329 3.03529C6.15567 2.35027 5.48115 1.7723 4.77314 1.74734C4.23786 1.72829 3.70061 1.72632 3.16533 1.74734C2.24255 1.78346 1.50038 2.63071 1.49644 3.64676C1.48987 5.39774 1.49447 7.14938 1.49447 8.90037C1.49447 9.0199 1.49447 9.13944 1.49447 9.28656H0.274168L0.275481 9.28721Z" fill="black"/>
<path d="M10.0931 13.0328C9.96436 13.0328 9.86781 13.0328 9.77126 13.0328C6.64366 13.0328 3.5154 13.0335 0.387794 13.0321C-0.285409 13.0321 -0.769459 12.7136 -0.939566 12.1698C-1.19571 11.3514 -0.615771 10.5633 0.268259 10.5515C1.20877 10.539 2.14929 10.5482 3.0898 10.5482C5.29922 10.5482 7.50799 10.5482 9.71741 10.5482C9.83563 10.5482 9.95385 10.5482 10.0931 10.5482V13.0321V13.0328Z" fill="black"/>
<path d="M15.0236 14.871H11.3633C11.3574 14.7554 11.3475 14.6503 11.3475 14.5452C11.3462 13.277 11.3462 12.0081 11.3475 10.7398C11.3482 9.8223 11.8493 9.31789 12.7629 9.31395C13.1018 9.31263 13.4407 9.30541 13.7796 9.31592C14.5408 9.34022 15.038 9.85185 15.04 10.615C15.0439 11.9385 15.0413 13.2612 15.04 14.5846C15.04 14.6707 15.0308 14.7561 15.0236 14.871Z" fill="black"/>
<path d="M16.2833 13.021V10.5482C16.8783 10.5482 17.4648 10.5462 18.0507 10.5489C18.3561 10.5502 18.668 10.5252 18.9669 10.5745C19.6191 10.6822 20.0434 11.2162 20.0164 11.8395C19.9902 12.4509 19.5389 12.9757 18.8986 13.0092C18.0395 13.0545 17.1765 13.0204 16.2839 13.0204L16.2833 13.021Z" fill="black"/>
</g>
<defs>
<clipPath id="clip0_1_527">
<rect width="21.0171" height="21" fill="white" transform="translate(-1 0.5)"/>
</clipPath>
</defs>
</svg>
