<svg width="20" height="18" viewBox="0 0 20 18" fill="none" xmlns="http://www.w3.org/2000/svg">
<g clip-path="url(#clip0_1_521)">
<path d="M10.0118 15.9597C7.0136 15.9597 4.01618 15.9597 1.01797 15.9597C0.714842 15.9597 0.574695 16.0984 0.574695 16.3977C0.574695 16.4752 0.578631 16.5527 0.573907 16.6295C0.567609 16.7225 0.55816 16.8155 0.540839 16.9062C0.476277 17.2372 0.158976 17.5023 -0.220524 17.4984C-0.601599 17.4946 -0.917324 17.2116 -0.974801 16.8481C-0.988185 16.7628 -0.995272 16.6752 -0.995272 16.5891C-0.996059 14.8279 -1.00787 13.0659 -0.991335 11.3046C-0.981887 10.2783 -0.602386 9.38527 0.125121 8.64186C0.566821 8.19069 1.09198 7.86976 1.69273 7.66511C2.16513 7.50465 2.65329 7.45581 3.15089 7.45581C7.76237 7.45736 12.3738 7.45348 16.9853 7.45891C18.3364 7.46046 19.4308 7.9969 20.2418 9.06356C20.6402 9.58837 20.878 10.1845 20.9591 10.8357C20.9866 11.055 20.9984 11.2783 20.9992 11.5C21.0024 13.2101 21.0016 14.9202 21.0008 16.6302C21.0008 16.8977 20.9339 17.1411 20.7103 17.3178C20.4741 17.5046 20.2103 17.5535 19.9292 17.4395C19.6599 17.3295 19.4899 17.1271 19.4513 16.838C19.4316 16.6922 19.434 16.5426 19.43 16.3953C19.4237 16.1574 19.3237 16.0139 19.1238 15.9698C19.0797 15.9597 19.0332 15.9605 18.9875 15.9605C15.9964 15.9605 13.0053 15.9605 10.0134 15.9605L10.0118 15.9597Z" fill="black"/>
<path d="M9.90237 0.5C11.8471 0.5 13.7911 0.5 15.735 0.5C16.3862 0.5 16.9948 0.643411 17.5199 1.03953C18.1955 1.54884 18.5899 2.21938 18.623 3.06124C18.6513 3.77519 18.6388 4.4907 18.6419 5.20543C18.6443 5.66589 18.6419 6.12636 18.6419 6.58682C18.6419 6.62791 18.6395 6.67132 18.6285 6.71085C18.5947 6.83566 18.5262 6.88527 18.397 6.86124C18.2561 6.83488 18.1199 6.77829 17.979 6.76279C17.6475 6.72713 17.3152 6.70233 16.9822 6.68527C16.7601 6.67364 16.6916 6.63411 16.6602 6.41938C16.5594 5.73876 15.9193 5.12636 15.1004 5.13566C14.1871 5.14574 13.2738 5.13798 12.3612 5.13798C11.6818 5.13798 11.1015 5.53643 10.8708 6.16434C10.8377 6.25426 10.8251 6.35194 10.8078 6.44651C10.7755 6.61628 10.7118 6.67984 10.5401 6.68217C10.1803 6.68605 9.8197 6.68605 9.45988 6.68217C9.29454 6.68062 9.22919 6.61628 9.19927 6.42791C9.15754 6.16357 9.05361 5.92791 8.88355 5.72093C8.57569 5.34574 8.1773 5.14186 7.68599 5.13953C6.74354 5.13488 5.80109 5.13721 4.85785 5.13876C4.06578 5.13953 3.44614 5.74884 3.34536 6.41783C3.31308 6.63411 3.24773 6.67209 3.0257 6.68605C2.65801 6.71008 2.29032 6.74419 1.92342 6.78295C1.81082 6.79457 1.70296 6.84264 1.59116 6.86124C1.47069 6.88062 1.41479 6.84031 1.38093 6.72403C1.36755 6.67829 1.36125 6.62946 1.36125 6.5814C1.36046 5.47674 1.3455 4.37209 1.3644 3.26744C1.38408 2.11163 1.92656 1.26202 2.98791 0.748062C3.40835 0.545736 3.86422 0.5 4.3256 0.5C6.18453 0.5 8.04345 0.5 9.90237 0.5Z" fill="black"/>
</g>
<defs>
<clipPath id="clip0_1_521">
<rect width="22" height="17" fill="white" transform="translate(-1 0.5)"/>
</clipPath>
</defs>
</svg>
