<svg width="44" height="17" viewBox="0 0 44 17" fill="none" xmlns="http://www.w3.org/2000/svg">
<path fill-rule="evenodd" clip-rule="evenodd" d="M0.172546 0.456038L2.4923 0.453735C4.34695 4.95164 6.18548 9.45644 8.03783 13.9578C8.45573 13 8.83219 12.0226 9.23512 11.0567L13.5684 0.453735C14.3397 0.45834 15.1111 0.453735 15.8824 0.456038V16.3063H14.3938C14.3892 11.6058 14.4019 6.90414 14.3869 2.20362C13.9414 3.22593 13.5465 4.27125 13.1206 5.30161C11.6378 8.97062 10.1504 12.635 8.67101 16.3063C8.24735 16.3075 7.8237 16.3052 7.40004 16.3075C5.48783 11.6058 3.59749 6.89493 1.68413 2.19326C1.68182 6.89839 1.68413 11.6024 1.68413 16.3075H0.172546V0.453735V0.456038ZM22.3984 4.62123C23.6924 4.21139 25.1269 4.21254 26.3921 4.73635C27.3131 5.11051 28.1304 5.80125 28.6002 6.71879C28.6271 6.76299 28.6601 6.80327 28.698 6.83852C28.721 6.08446 28.7003 5.32809 28.7072 4.57288H30.1405V16.304C29.6627 16.3063 29.185 16.3052 28.7072 16.304C28.7038 15.5603 28.7141 14.8143 28.7015 14.0695C28.5553 14.1754 28.4965 14.3619 28.3975 14.5092C27.8081 15.4314 26.8629 16.068 25.8464 16.3558C23.9088 16.9303 21.7606 16.3006 20.2548 14.9398C20.0015 14.7372 19.7816 14.4943 19.5618 14.2537C19.1876 13.8772 18.9597 13.3764 18.7686 12.8791C18.3863 11.8395 18.2194 10.6986 18.361 9.58999C18.6465 7.30708 20.3112 5.31428 22.3984 4.62123ZM23.8858 5.85306C23.0498 5.93304 22.2545 6.25197 21.5949 6.77175C20.7753 7.4167 20.1957 8.31778 19.9486 9.33096C19.6803 10.39 19.7953 11.5099 20.2732 12.4923C20.7333 13.4279 21.4954 14.1811 22.4364 14.6301C23.4576 15.1206 24.6606 15.2173 25.7244 14.8201C26.7605 14.4402 27.6458 13.6424 28.173 12.6373C28.6189 11.7915 28.7899 10.8277 28.6623 9.8801C28.5357 8.77261 28.0211 7.71462 27.221 6.97437C26.7777 6.55954 26.2506 6.24466 25.6753 6.05102C25.0999 5.85738 24.4897 5.79063 23.8858 5.85306ZM35.4005 5.13123C36.5249 4.4827 37.8292 4.2161 39.1179 4.37141C40.1566 4.50111 41.1433 4.90038 41.9799 5.52956C42.8608 6.19228 43.5338 7.09302 43.9197 8.12561C43.3786 8.12446 42.8387 8.12676 42.2988 8.12446C42.2193 8.14288 42.1917 8.04963 42.1537 8.00128C41.5488 6.99748 40.5775 6.26806 39.4448 5.96703C38.3397 5.68152 37.1424 5.86112 36.1408 6.42062C35.3168 6.88116 34.6589 7.58976 34.2608 8.44566C33.6829 9.67864 33.7013 11.181 34.2585 12.4186C34.6755 13.3628 35.4048 14.1348 36.3238 14.6048C37.4152 15.1597 38.7127 15.2023 39.8604 14.8201C40.8448 14.4977 41.6391 13.7437 42.2355 12.8837C42.7881 12.8802 43.343 12.8814 43.8967 12.8837C43.5076 13.7552 42.9527 14.553 42.2412 15.1666C41.431 15.8753 40.436 16.3392 39.3723 16.5043C38.216 16.6744 37.0351 16.5202 35.9612 16.0588C34.9853 15.6376 34.1396 14.9636 33.5113 14.1063C32.0804 12.1906 31.9399 9.34017 33.1982 7.29326C33.7345 6.39577 34.493 5.65042 35.4005 5.13123Z" fill="#101010" fill-opacity="0.46"/>
</svg>
