<svg width="69" height="18" viewBox="0 0 69 18" fill="none" xmlns="http://www.w3.org/2000/svg">
<path d="M3.35508 17.3789H0.749817V0.474025L3.35508 0.646712V17.3789ZM7.61928 17.3789H5.01402V5.3219L7.61928 5.47157V17.3789ZM6.31722 1.6529C7.13575 1.6529 7.80808 2.34019 7.80808 3.17714C7.80808 4.01409 7.13575 4.70023 6.31722 4.70023C5.49754 4.70023 4.82521 4.01409 4.82521 3.17714C4.82521 2.34019 5.49754 1.6529 6.31722 1.6529ZM13.8383 7.74642V10.4058H11.8846V17.3673H9.27937V4.14188C9.27937 2.12606 10.9176 0.30249 12.8494 0.30249C13.501 0.30249 14.0259 0.495899 14.1526 0.581091L14.0467 3.13454H12.8494C12.3244 3.13454 11.8823 3.58468 11.8823 4.14188V7.74642H13.8371H13.8383ZM17.4969 10.0627H19.4506V8.81938C19.4506 8.26102 19.0097 7.81089 18.4835 7.81089C18.3525 7.81224 18.223 7.83941 18.1025 7.89084C17.982 7.94227 17.8728 8.01695 17.7812 8.11061C17.6896 8.20428 17.6173 8.31509 17.5685 8.4367C17.5197 8.55832 17.4954 8.68835 17.4969 8.81938V10.0627ZM14.8917 8.81938C14.8917 6.8024 16.4884 5.15037 18.4835 5.15037C20.4591 5.15037 22.0558 6.8024 22.0558 8.81938V11.3936C22.0558 12.1442 21.4676 12.7232 20.7526 12.7232H17.4969V13.8814C17.4969 14.4397 17.9379 14.8899 18.4847 14.8899H20.984L21.0681 17.1429L18.7149 17.5066C16.447 17.8935 14.8928 15.8984 14.8928 13.8814L14.8917 8.81938ZM24.2835 17.3789V0.582242H25.9643V5.68685C26.426 5.53719 27.1616 5.47272 27.6658 5.47272C29.4514 5.47272 30.8387 7.12475 30.8387 8.99091V17.3789H29.1993V8.99091C29.1993 8.06762 28.4637 7.33888 27.5611 7.33888H25.9643V17.3777L24.2835 17.3789ZM36.9874 14.1393V11.2427H35.3676C34.4651 11.2427 33.7502 11.9726 33.7502 12.8948V14.1393C33.7502 15.0614 34.4639 15.812 35.3676 15.812C36.2714 15.812 36.9874 15.0614 36.9874 14.1393ZM36.9874 8.71231C36.9874 7.74642 36.5454 6.97394 35.3481 7.10287H35.3688C34.6965 7.12475 33.8353 7.20994 33.1216 7.25254C33.1009 6.63087 33.079 6.39486 33.0583 5.92285C33.6258 5.70872 34.4444 5.49344 35.1385 5.47272C37.2396 5.43012 38.6257 7.16734 38.6257 9.03351V14.1393C38.6257 15.9836 37.1751 17.5066 35.3688 17.5066C33.5625 17.5066 32.0705 15.9836 32.0705 14.1393V13.0882C32.0705 11.2427 33.3104 9.84859 35.3688 9.84859C36.147 9.84859 36.5454 9.93493 36.9874 10.0627V8.71231ZM43.3319 5.47157C45.1394 5.47157 46.6302 6.97394 46.6302 8.8401V9.05538C45.9798 9.0761 45.4537 9.0761 44.9713 9.09798V8.8401C44.9713 7.93983 44.2357 7.18922 43.3319 7.18922C42.4501 7.18922 41.7352 7.93983 41.7352 8.8401V14.2037C41.7352 15.1478 42.4489 15.8558 43.3319 15.8558C44.2149 15.8558 44.9506 15.1685 44.9713 14.2671C45.7898 14.3327 46.5681 14.3753 46.6302 14.3753C46.5462 16.1551 45.0761 17.5711 43.3319 17.5711C41.5256 17.5711 40.0544 16.0699 40.0544 14.2037V8.8401C40.0544 6.97509 41.5256 5.47272 43.3319 5.47272V5.47157ZM53.2522 17.3789L50.0586 11.694C49.7444 11.1357 49.7444 11.0724 50.122 10.4069L52.9367 5.64425H54.849L51.6773 11.1357L55.1011 17.3789H53.2522ZM49.6384 0.624838V17.3789H47.9576V0.624838H49.6384ZM57.1353 10.6637H60.3703V8.86197C60.3703 7.93983 59.6358 7.18922 58.754 7.18922C57.8502 7.18922 57.1353 7.93983 57.1353 8.86197V10.6637ZM55.4545 8.86197C55.4545 6.99581 56.9258 5.47272 58.754 5.47272C60.5603 5.47272 62.0304 6.99581 62.0304 8.86197V11.5006C62.033 11.6125 62.0132 11.7238 61.9721 11.8279C61.931 11.932 61.8695 12.0268 61.7912 12.1068C61.7128 12.1867 61.6193 12.2501 61.516 12.2933C61.4128 12.3365 61.3019 12.3586 61.19 12.3583H57.1353V14.1819C57.1353 15.104 57.8491 15.8558 58.754 15.8558H60.8757C60.8964 16.413 60.9172 16.7998 60.9597 17.1854L58.9428 17.5078C56.8844 17.8716 55.4545 16.048 55.4545 14.1819V8.86197ZM65.1848 17.3789H63.504V9.01163C63.504 7.14662 64.9338 5.40825 67.0349 5.45084C67.7486 5.47272 68.1895 5.64425 68.6731 5.88026C68.6523 6.39486 68.6316 6.82427 68.6109 7.20994L66.7827 7.16734C65.8997 7.16734 65.186 8.13208 65.186 9.01163L65.1848 17.3789Z" fill="#101010" fill-opacity="0.46"/>
</svg>
