<svg width="49" height="17" viewBox="0 0 49 17" fill="none" xmlns="http://www.w3.org/2000/svg">
<path fill-rule="evenodd" clip-rule="evenodd" d="M4.53164 0.554187C5.52045 0.351264 6.54775 0.45737 7.47421 0.858115C8.82923 1.4464 9.90103 2.66096 10.3776 4.0908C10.7783 5.26507 10.753 6.57058 10.373 7.74715C10.1232 8.51848 9.71223 9.22189 9.28281 9.89997C7.91284 12.0332 6.52214 14.1527 5.15561 16.2882C4.57309 16.3043 3.99056 16.2882 3.40803 16.2963C4.59266 14.4704 5.80146 12.6606 6.97688 10.829C6.20209 11.3148 5.25232 11.4 4.37507 11.24C3.35162 11.0466 2.42717 10.4457 1.75024 9.64094C0.810829 8.52884 0.283561 7.03683 0.376811 5.55864C0.46468 4.3187 0.94719 3.13945 1.7537 2.19356C2.47437 1.35545 3.45984 0.754503 4.53164 0.554187ZM4.99099 1.97942C3.85241 2.15672 2.83817 2.93956 2.30399 3.98259C1.92098 4.72635 1.77933 5.57102 1.89875 6.39904C2.05177 7.44041 2.59401 8.385 3.41609 9.04229C4.02049 9.52812 4.78607 9.81362 5.5551 9.77678C6.33716 9.80785 7.10452 9.55791 7.71828 9.07222C8.4309 8.51733 8.91787 7.67692 9.09286 6.77665C9.29691 5.69246 9.08743 4.57116 8.50573 3.63376C8.0602 2.91884 7.37751 2.35473 6.58891 2.10146C6.07276 1.93835 5.52592 1.89659 4.99099 1.97942ZM27.8374 0.489718C29.5804 0.328544 31.3648 0.800553 32.8395 1.7676C34.4075 2.78875 35.6336 4.38092 36.1701 6.21945C36.7779 8.26636 36.5085 10.5596 35.4793 12.4154C34.59 14.0333 33.1726 15.2971 31.4638 15.9958C29.8159 16.6666 27.9886 16.756 26.2832 16.2491C24.5654 15.7305 23.0663 14.6603 22.0178 13.204C21.3523 12.2843 20.8925 11.232 20.6697 10.1187C20.464 9.05707 20.47 7.96526 20.6873 6.90594C20.9047 5.84662 21.329 4.84064 21.9361 3.94575C23.2762 1.96561 25.5027 0.65895 27.8374 0.489718ZM27.7292 1.98748C25.8008 2.20392 23.9991 3.37588 22.9814 5.07972C21.8809 6.87911 21.6886 9.25412 22.5739 11.1871C23.0344 12.2117 23.7585 13.1039 24.6404 13.7693C25.9113 14.7329 27.5254 15.2256 29.0991 15.0644C31.0516 14.9079 32.8948 13.7635 33.9574 12.0701C35.0361 10.3812 35.3043 8.15699 34.609 6.26089C34.2334 5.23424 33.6083 4.31716 32.79 3.59231C31.42 2.35818 29.5366 1.75148 27.7292 1.98748ZM12.1667 0.713059H20.5892V2.11297H17.1423V16.2963H15.6365V2.11067H12.1667V0.713059ZM40.6415 0.71421C42.9198 0.711907 45.1981 0.71421 47.4753 0.71421V2.11182H41.8606C41.6097 3.55317 41.3437 4.99107 41.1077 6.43473C41.9251 5.95581 42.8622 5.65995 43.8085 5.70139C44.885 5.71751 45.943 6.13886 46.773 6.84342C47.9703 7.8473 48.6956 9.41529 48.7186 11.004C48.7589 12.6434 48.0681 14.2966 46.8501 15.358C46.1216 16.0044 45.2146 16.4153 44.2483 16.5369C43.1751 16.6676 42.0882 16.4488 41.1492 15.9129C39.5835 15.0218 38.5727 13.2489 38.4656 11.4208H39.9507C40.021 12.3256 40.3652 13.2155 40.9627 13.8867C41.5026 14.5084 42.2521 14.9401 43.0556 15.0541C43.5101 15.1233 43.9737 15.1017 44.4198 14.9904C44.8658 14.8791 45.2853 14.6805 45.654 14.4059C46.4081 13.8464 46.933 12.9853 47.1287 12.0528C47.4476 10.5861 46.9445 8.94904 45.8083 7.99351C45.0392 7.33615 43.9858 7.04028 43.0015 7.22909C41.9999 7.40523 41.1181 8.0269 40.4723 8.8178C40.0727 8.67424 39.674 8.52841 39.2761 8.38033C39.7366 5.82457 40.1948 3.27112 40.6415 0.71421ZM27.9583 3.33559C27.9398 3.03051 28.2138 2.75076 28.5085 2.76802C28.801 2.75536 29.0646 3.03281 29.0531 3.33213C29.0531 5.14994 29.0508 6.96776 29.0542 8.78441C29.0347 8.90644 28.9767 9.01904 28.8887 9.10581C28.8007 9.19257 28.6873 9.24897 28.565 9.26679C27.3423 9.23916 26.1186 9.26678 24.8948 9.25182C24.5414 9.25758 24.2547 8.83046 24.4021 8.4943C24.4423 8.38115 24.5171 8.2835 24.6158 8.21513C24.7146 8.14676 24.8323 8.11112 24.9524 8.11324C25.9539 8.11324 26.9555 8.11439 27.9571 8.11209C27.9594 6.51992 27.956 4.92775 27.9583 3.33559Z" fill="#101010" fill-opacity="0.46"/>
</svg>
