<svg width="69" height="17" viewBox="0 0 69 17" fill="none" xmlns="http://www.w3.org/2000/svg">
<path d="M35.6886 16.882H29.5307V11.5379C29.5307 10.8149 29.2256 10.2048 28.8077 9.68439L26.4465 7.32435C25.9376 6.91681 25.316 6.60021 24.593 6.60021H23.3611V16.8716H17.2032V0.453735H26.1414C27.4745 0.453735 28.8077 0.962584 29.7333 1.99064L34.1517 6.40796C35.1798 7.33471 35.6886 8.66784 35.6886 10.001V16.882ZM62.4009 0.453735V5.7978C62.4009 6.52078 62.0958 7.13094 61.6779 7.6513L59.3167 10.0125C58.8079 10.5213 58.1862 10.7355 57.4632 10.7355H54.8983C55.7237 9.80988 56.2314 8.57805 56.2314 7.34622V0.465248H50.0734V5.80931C50.0734 6.53229 49.7683 7.14245 49.3504 7.66281L46.9892 10.024C46.4804 10.5329 45.8587 10.747 45.1357 10.747H43.9039V0.47676H37.7459V16.9165H46.6842C48.0173 16.9165 49.3504 16.4076 50.2772 15.3796L53.1587 12.4992V16.9165H59.0116C60.3448 16.9165 61.6779 16.4076 62.6035 15.3796L67.022 10.9623C68.0512 10.0355 68.5589 8.70238 68.5589 7.36924V0.487121H62.4009V0.453735ZM15.147 0.453735H0.763428V6.61173H4.87681V16.8831H11.0348V6.61173H15.147V0.453735Z" fill="#101010" fill-opacity="0.46"/>
</svg>
