<svg width="106" height="24" viewBox="0 0 106 24" fill="none" xmlns="http://www.w3.org/2000/svg">
<path d="M7.4881 20.2193C7.9555 20.5785 8.52191 20.4611 9.16891 19.9937L13.7923 16.6033L18.4065 19.9937C19.0546 20.4611 19.621 20.5785 20.0884 20.2182C20.5466 19.8774 20.6364 19.3018 20.3855 18.5546L18.5596 13.1323L23.2187 9.79366C23.8657 9.33546 24.1362 8.8151 23.9555 8.26596C23.7667 7.72488 23.2543 7.45664 22.4542 7.4647L16.751 7.51075L15.0069 2.05041C14.7639 1.28598 14.3679 0.881897 13.7923 0.881897C13.2167 0.881897 12.8126 1.28598 12.5697 2.05041L10.8336 7.5096L5.11308 7.4647C4.33024 7.45664 3.80873 7.72603 3.61992 8.26596C3.43112 8.81395 3.71893 9.33662 4.35672 9.79481L9.01694 13.1311L7.19108 18.5546C6.93895 19.3018 7.0299 19.8785 7.4881 20.2193ZM39.1472 17.583H41.7375V15.1999H43.4276V13.024H41.7375V4.60501H37.9235C36.1249 7.3726 34.4126 10.1953 32.7889 13.0689V15.1999H39.1472V17.583ZM35.2342 13.0954V12.9515C36.4391 10.815 37.7139 8.71863 39.0563 6.66574H39.2013V13.0954H35.2342ZM47.0551 17.8086C47.9819 17.8086 48.6381 17.134 48.6381 16.2429C48.6381 15.353 47.9819 14.6876 47.0551 14.6876C46.1376 14.6876 45.4722 15.353 45.4722 16.2429C45.4722 17.134 46.1376 17.8086 47.0551 17.8086ZM55.6296 17.9168C58.5422 17.9168 60.5569 16.0541 60.5569 13.3199V13.3026C60.5569 10.8286 58.8127 9.04765 56.394 9.04765C55.1529 9.04765 54.1456 9.58874 53.6229 10.4602H53.4618L53.7853 6.76359H59.7844V4.60501H51.6716L51.0695 12.2861H53.3985C53.5485 12.0077 53.7538 11.7629 54.0017 11.5666C54.4334 11.1982 54.9906 11.0082 55.648 11.0082C57.0237 11.0082 58.0034 11.9707 58.0034 13.3568V13.374C58.0034 14.7682 57.0318 15.749 55.6376 15.749C54.415 15.749 53.5251 14.9846 53.3351 14.0314L53.3179 13.9681H50.8542L50.8623 14.0947C51.0154 16.2613 52.8516 17.9168 55.6296 17.9168Z" fill="#101010" fill-opacity="0.46"/>
<path d="M69.0797 10.687H70.1884V4.75234H69.0843L67.4657 5.84257V6.84184L69.0072 5.79767H69.0797V10.687ZM73.8919 10.8343C75.3655 10.8343 76.2577 9.63821 76.2577 7.72139V7.71333C76.2577 5.79767 75.3644 4.60498 73.8919 4.60498C72.4183 4.60498 71.5342 5.79767 71.5342 7.71333V7.72139C71.5342 9.63821 72.4195 10.8343 73.8919 10.8343ZM73.8919 9.97552C73.1022 9.97552 72.6509 9.12821 72.6509 7.72139V7.71333C72.6509 6.30767 73.1022 5.46841 73.8919 5.46841C74.6817 5.46841 75.141 6.30767 75.141 7.71333V7.72139C75.141 9.12821 74.6817 9.97552 73.8919 9.97552ZM77.2961 10.687H78.4025V8.77823L79.0645 8.04259L81.0216 10.687H82.3743L79.8542 7.33918L82.1901 4.75234H80.9191L78.4762 7.49575H78.4025V4.75234H77.2961V10.687Z" fill="#101010" fill-opacity="0.46"/>
<path d="M82.0854 8.75873H83.9665V10.5385H84.937V8.75873H86.817V7.82853H84.937V6.04871H83.9665V7.82853H82.0854V8.75873ZM67.6799 18.0562H68.7885V15.8227H70.0157L71.2314 18.0562H72.4978L71.1451 15.6616C71.8796 15.4083 72.3136 14.7578 72.3136 13.9727V13.9646C72.3136 12.833 71.5147 12.1227 70.1838 12.1227H67.6799V18.0562ZM68.7885 15.0088V12.9815H70.0468C70.7502 12.9815 71.175 13.3683 71.175 13.9888V13.9969C71.175 14.6347 70.7675 15.0088 70.0675 15.0088H68.7885ZM72.9088 18.0562H74.0681L74.5827 16.5227H76.876L77.3952 18.0562H78.5545L76.3556 12.1227H75.1065L72.9077 18.0562H72.9088ZM75.6948 13.2244H75.7685L76.6008 15.7042H74.8625L75.6948 13.2244ZM80.1858 18.0562H81.2933V13.0137H83.2044V12.1227H78.2782V13.0149H80.1847L80.1858 18.0562ZM84.0735 18.0562H85.181V12.1227H84.0735V18.0562ZM86.4198 18.0562H87.4904V13.9692H87.5584L90.6022 18.0562H91.5601V12.1227H90.4952V16.2096H90.4261L87.3822 12.1227H86.4198V18.0562ZM95.4524 18.2035C97.1056 18.2035 98.1624 17.2215 98.1624 15.6869V14.9467H95.5894V15.7571H97.0745L97.0711 15.8803C97.0573 16.723 96.4137 17.2871 95.4685 17.2871C94.3657 17.2871 93.6703 16.4444 93.6703 15.0825V15.0744C93.6703 13.7344 94.353 12.8905 95.434 12.8905C96.2284 12.8905 96.7959 13.2693 96.9974 13.9186L97.01 13.96H98.1095L98.1049 13.9186C97.8954 12.7593 96.8638 11.973 95.434 11.973C93.6703 11.973 92.5409 13.1876 92.5409 15.0825V15.0906C92.5409 17.0074 93.6588 18.2035 95.4524 18.2035ZM101.312 18.2035C102.797 18.2035 103.73 17.4805 103.73 16.3247V16.3201C103.73 15.4244 103.184 14.9225 101.879 14.6588L101.213 14.5241C100.441 14.3676 100.128 14.1039 100.128 13.6837V13.6803C100.128 13.1737 100.617 12.8664 101.304 12.8664C102.012 12.8618 102.472 13.191 102.549 13.6515L102.558 13.701H103.618L103.614 13.6481C103.536 12.6937 102.681 11.9741 101.308 11.9741C99.9687 11.9741 99.0155 12.6891 99.0155 13.7505V13.754C99.0155 14.6393 99.5647 15.2057 100.831 15.4613L101.496 15.5925C102.295 15.7571 102.618 16.0162 102.618 16.4444V16.4479C102.618 16.9579 102.094 17.3113 101.347 17.3113C100.56 17.3113 100.007 16.982 99.9549 16.4847L99.9515 16.4444H98.8774L98.882 16.502C98.9591 17.5254 99.8743 18.2035 101.312 18.2035Z" fill="#101010" fill-opacity="0.46"/>
<path fill-rule="evenodd" clip-rule="evenodd" d="M68.9645 10.8022V5.96352L67.3505 7.0572V5.77932L69.0497 4.63614H70.3034V10.801H68.9645V10.8022ZM69.0071 5.79774H69.0796V10.6871H70.1883V4.75241H69.0842L67.4656 5.84264V6.84192L69.0071 5.79774ZM77.1809 10.8022V4.63729H78.5175V7.27593L80.8672 4.63729H82.449L80.0038 7.34616L82.6056 10.8022H80.9639L79.0551 8.22456L78.5175 8.8232V10.8022H77.1809ZM78.4024 8.7783L79.0644 8.04266L81.0215 10.6871H82.3742L79.8541 7.33925L82.19 4.75241H80.919L78.4761 7.49582H78.4024V4.75241H77.296V10.6871H78.4035L78.4024 8.7783ZM81.9701 8.87386V7.71341H83.8512V5.93359H85.052V7.71341H86.9319V8.87386H85.052V10.6537H83.8512V8.87386H81.9701ZM82.0852 8.75873V7.82853H83.9663V6.04871H84.9368V7.82853H86.8168V8.75873H84.9368V10.5386H83.9663V8.75873H82.0852ZM67.5646 18.1713V12.0075H70.1837C70.8687 12.0075 71.4305 12.1906 71.823 12.5325C72.2179 12.8767 72.4286 13.3706 72.4286 13.9646V13.9727C72.4286 14.7567 72.0164 15.421 71.3119 15.7226L72.6957 18.1713H71.1634L69.9477 15.9379H68.9035V18.1713H67.5646ZM70.0167 15.8228L71.2313 18.0562H72.4977L71.145 15.6616C71.1818 15.6493 71.2183 15.6359 71.2543 15.6213C71.922 15.3415 72.3135 14.7187 72.3135 13.9727V13.9646C72.3135 12.833 71.5145 12.1227 70.1837 12.1227H67.6797V18.0562H68.7884V15.8228H70.0167ZM72.7429 18.1713L75.0269 12.0075H76.4361L78.7201 18.1713H77.3133L76.793 16.6367H74.6655L74.1508 18.1713H72.7429ZM74.5826 16.5216H76.8758L77.395 18.0562H78.5543L76.3555 12.1227H75.1064L72.9075 18.0562H74.068L74.5826 16.5216ZM80.0694 18.1713V13.1288H78.1629V12.0075H83.3182V13.13H81.4071V18.1713H80.0694ZM81.2931 18.0562H80.1845V13.0137H78.2781V12.1227H83.2031V13.0149H81.292L81.2931 18.0562ZM83.9583 18.1713V12.0075H85.296V18.1713H83.9583ZM86.3045 18.1713V12.0075H87.4396L90.3799 15.954V12.0075H91.675V18.1713H90.5445L87.6043 14.2225V18.1713H86.3045ZM87.5582 13.9693L90.6021 18.0562H91.5599V12.1227H90.495V16.2096H90.4259L87.3821 12.1227H86.4196V18.0562H87.4903V13.9693H87.5582ZM98.2763 14.8327V15.6869C98.2763 16.4813 98.0034 17.1432 97.5049 17.6049C97.0099 18.0654 96.3019 18.3186 95.4523 18.3186C94.529 18.3186 93.7692 18.0101 93.2396 17.4437C92.7123 16.8796 92.4268 16.0714 92.4268 15.0906V15.0825C92.4268 14.112 92.7158 13.305 93.243 12.7386C93.7703 12.1722 94.5255 11.859 95.435 11.859C96.9086 11.859 97.9977 12.673 98.2199 13.899L98.221 13.9071L98.2383 14.0752H96.9259L96.889 13.9531C96.7048 13.3614 96.1891 13.0057 95.435 13.0057C94.9273 13.0057 94.5198 13.2025 94.2377 13.5525C93.9522 13.9048 93.7864 14.4228 93.7864 15.0744V15.0825C93.7864 15.7445 93.9557 16.2683 94.2458 16.6229C94.5336 16.9751 94.9503 17.172 95.4695 17.172C95.9197 17.172 96.2881 17.0373 96.5448 16.8128C96.6762 16.6957 96.781 16.5517 96.8521 16.3907C96.9232 16.2296 96.959 16.0552 96.9569 15.8792V15.8723H95.4741V14.8315L98.2763 14.8327ZM97.0755 15.7571L97.0721 15.8803C97.0583 16.723 96.4147 17.2871 95.4695 17.2871C94.3667 17.2871 93.6713 16.4444 93.6713 15.0825V15.0744C93.6713 13.7344 94.354 12.8905 95.435 12.8905C96.2294 12.8905 96.7969 13.2693 96.9984 13.9186L97.0111 13.96H98.1105L98.1059 13.9186C98.1016 13.894 98.097 13.8694 98.0921 13.8449C97.8515 12.7259 96.8349 11.9742 95.435 11.9742C93.6713 11.9742 92.5419 13.1876 92.5419 15.0825V15.0906C92.5419 17.0074 93.6586 18.2035 95.4523 18.2035C97.1055 18.2035 98.1623 17.2215 98.1623 15.6869V14.9467H95.5893V15.7571H97.0755ZM101.213 14.5242L101.879 14.6588C103.184 14.9225 103.73 15.4244 103.73 16.3201V16.3247C103.73 17.4805 102.797 18.2035 101.312 18.2035C99.9007 18.2035 98.9935 17.5508 98.8876 16.5595C98.8854 16.5404 98.8834 16.5212 98.8818 16.502L98.8772 16.4444H99.9513L99.9548 16.4847C100.007 16.9821 100.56 17.3113 101.347 17.3113C102.094 17.3113 102.618 16.9579 102.618 16.4479V16.4444C102.618 16.0162 102.295 15.7571 101.496 15.5925L100.831 15.4613C99.5645 15.2057 99.0154 14.6393 99.0154 13.7551V13.7505C99.0154 12.6891 99.9686 11.9742 101.307 11.9742C102.652 11.9742 103.499 12.6626 103.608 13.5859L103.613 13.6481L103.618 13.701H102.558L102.549 13.6515C102.471 13.191 102.012 12.8618 101.304 12.8664C100.617 12.8664 100.127 13.1749 100.127 13.6803V13.6849C100.127 14.1039 100.441 14.3676 101.213 14.5242ZM101.473 15.7053L100.809 15.5741C100.164 15.444 99.6865 15.2322 99.3676 14.9271C99.0465 14.6174 98.9002 14.2237 98.9002 13.7551V13.7505C98.9002 13.1818 99.157 12.7052 99.5887 12.3725C100.019 12.0432 100.619 11.859 101.307 11.859C102.721 11.859 103.645 12.605 103.729 13.6388L103.742 13.8161H102.462L102.437 13.6711C102.372 13.2889 101.983 12.978 101.305 12.9815C100.977 12.9815 100.707 13.0552 100.522 13.1795C100.437 13.2321 100.366 13.3057 100.317 13.3934C100.269 13.4811 100.243 13.5799 100.244 13.6803V13.6849C100.244 13.8599 100.306 13.9957 100.452 14.112C100.606 14.234 100.857 14.3342 101.237 14.4113L101.903 14.546M101.473 15.7053C101.867 15.7859 102.128 15.8884 102.287 16.0104C102.357 16.059 102.413 16.1242 102.45 16.2C102.488 16.2758 102.507 16.3598 102.504 16.4444V16.4479C102.504 16.6586 102.397 16.8416 102.199 16.9763C101.998 17.1121 101.704 17.1962 101.347 17.1962C100.969 17.1962 100.656 17.1167 100.436 16.9855C100.217 16.8554 100.092 16.6781 100.071 16.4732L100.056 16.3293H98.7552L98.7678 16.51C98.8093 17.0569 99.0764 17.5139 99.5208 17.8305C99.964 18.146 100.578 18.3186 101.313 18.3186C102.073 18.3186 102.706 18.1344 103.149 17.7891C103.598 17.4402 103.846 16.9372 103.846 16.3247V16.3201C103.846 15.8458 103.7 15.4624 103.372 15.1665C103.049 14.8764 102.563 14.6796 101.903 14.546M75.7188 10.0665C75.2894 10.6353 74.6632 10.9495 73.8918 10.9495C73.1205 10.9495 72.4965 10.6353 72.0683 10.0665C71.6434 9.50244 71.419 8.69657 71.419 7.72146V7.71341C71.419 6.73945 71.6434 5.93474 72.0683 5.37178C72.4965 4.80422 73.1205 4.48993 73.8918 4.48993C74.6632 4.48993 75.2883 4.80422 75.7188 5.37178C76.146 5.93589 76.3727 6.73945 76.3727 7.71341V7.72146C76.3727 8.69657 76.146 9.50128 75.7188 10.0665ZM73.0756 9.32054C73.2713 9.67973 73.5476 9.86047 73.8918 9.86047C74.2372 9.86047 74.5135 9.67973 74.7115 9.32054C74.9118 8.95675 75.0258 8.41566 75.0258 7.72146V7.71341C75.0258 7.02036 74.9118 6.48158 74.7127 6.12009C74.5146 5.7632 74.2372 5.58361 73.8918 5.58361C73.5464 5.58361 73.2713 5.7632 73.0756 6.11894C72.8776 6.48043 72.7659 7.02036 72.7659 7.71341V7.72146C72.7659 8.41566 72.8776 8.95675 73.0767 9.32169L73.0756 9.32054ZM68.9035 13.0966V14.8937H70.0674C70.3978 14.8937 70.643 14.8051 70.8065 14.6565C70.9677 14.5103 71.0598 14.2904 71.0598 13.9969V13.9888C71.0598 13.7056 70.9642 13.4869 70.7984 13.3384C70.6304 13.1876 70.3782 13.0966 70.0467 13.0966H68.9035ZM76.6007 15.7042H74.8623L75.6947 13.2244H75.7683L76.6007 15.7042ZM75.7315 13.4765L75.0223 15.5891H76.4407L75.7315 13.4765ZM85.1809 12.1227H84.0734V18.0562H85.1809V12.1227ZM73.8918 10.8333C75.3654 10.8333 76.2576 9.63713 76.2576 7.72031V7.71341C76.2576 5.79774 75.3643 4.60505 73.8918 4.60505C72.4182 4.60505 71.5341 5.79774 71.5341 7.71341V7.72146C71.5341 9.63828 72.4194 10.8344 73.8918 10.8344V10.8333ZM73.8918 9.97444C73.1021 9.97444 72.6508 9.12713 72.6508 7.72031V7.71341C72.6508 6.30774 73.1021 5.46848 73.8918 5.46848C74.6816 5.46848 75.1409 6.30774 75.1409 7.71341V7.72146C75.1409 9.12828 74.6816 9.9756 73.8918 9.9756V9.97444ZM68.7884 15.0077H70.0674C70.7673 15.0077 71.1749 14.6335 71.1749 13.9957V13.9877C71.1749 13.366 70.7501 12.9803 70.0467 12.9803H68.7884V15.0077Z" fill="#101010" fill-opacity="0.46"/>
</svg>
