<svg width="82" height="15" viewBox="0 0 82 15" fill="none" xmlns="http://www.w3.org/2000/svg">
<path d="M5.45641 14.0582C4.48505 14.0582 3.60117 13.9496 2.80477 13.7324C2.00838 13.5152 1.22405 13.1381 0.451789 12.6011V9.41553H2.49708L2.77762 11.2889C3.04912 11.5181 3.42319 11.7052 3.89982 11.85C4.37645 11.9887 4.89531 12.0581 5.45641 12.0581C5.93304 12.0581 6.33425 11.9917 6.66005 11.859C6.99188 11.7263 7.24226 11.5393 7.4112 11.2979C7.58616 11.0506 7.67364 10.761 7.67364 10.4291C7.67364 10.1154 7.59521 9.83786 7.43835 9.59653C7.28751 9.34916 7.03412 9.12593 6.67815 8.92683C6.32822 8.7217 5.85159 8.52562 5.24826 8.33859C4.2045 8.03089 3.33872 7.69604 2.65093 7.33404C1.96916 6.96601 1.45633 6.5286 1.11243 6.0218C0.77457 5.50897 0.605638 4.89357 0.605638 4.17561C0.605638 3.46368 0.80172 2.83622 1.19388 2.29322C1.59208 1.74419 2.14111 1.31281 2.84097 0.999082C3.54084 0.68535 4.3493 0.522451 5.26636 0.510385C6.27995 0.498318 7.1759 0.618984 7.95419 0.872383C8.73852 1.12578 9.41425 1.47873 9.98138 1.93123V4.89961H7.99944L7.65554 3.08962C7.42628 2.94482 7.11556 2.81812 6.7234 2.70952C6.33727 2.60092 5.89684 2.54662 5.40211 2.54662C4.97978 2.54662 4.60571 2.60997 4.27992 2.73667C3.96015 2.86337 3.70675 3.04739 3.51972 3.28872C3.33269 3.53005 3.23917 3.82266 3.23917 4.16656C3.23917 4.46219 3.32062 4.72163 3.48352 4.94486C3.64642 5.16206 3.91792 5.37021 4.29802 5.5693C4.68415 5.76237 5.21508 5.97052 5.89081 6.19375C7.34483 6.59798 8.44591 7.13193 9.19404 7.79559C9.9482 8.45925 10.3253 9.33106 10.3253 10.411C10.3253 11.1592 10.1232 11.8077 9.71893 12.3568C9.3147 12.8998 8.74757 13.3191 8.01754 13.6147C7.28751 13.9103 6.4338 14.0582 5.45641 14.0582ZM14.8684 10.6373L13.5018 9.07163L19.9544 2.41992L19.9725 2.39277L18.6693 2.28417V0.691384H24.0902V2.28417L22.8504 2.52852L14.8684 10.6373ZM11.3751 13.8681V12.2844L12.7778 12.0129V2.55567L11.3751 2.28417V0.691384H16.7598V2.28417L15.4204 2.55567V12.0129L16.7598 12.2844V13.8681H11.3751ZM18.9589 13.8681V12.2844L20.1897 12.1758H20.1988L16.8503 7.56029L18.5969 5.81365L23.2667 12.0581L24.5608 12.2844V13.8681H18.9589ZM28.9501 13.8681V12.2844L30.3619 12.0129V9.35218L26.4523 2.46517L25.1853 2.28417V0.691384H30.4433V2.28417L29.3664 2.43802L31.5564 6.64625L31.7555 7.07159L31.8098 7.06254L32.0089 6.66435L34.4434 2.43802L32.9954 2.28417V0.691384H38.1539V2.28417L36.8507 2.46517L32.9954 9.14403V12.0129L34.4072 12.2844V13.8681H28.9501ZM39.0136 13.8681V12.2844L40.4163 12.0129V2.55567L39.0136 2.28417V0.691384H40.4163H43.0589H44.6517V2.28417L43.0589 2.55567V11.8409H46.7785L46.9052 9.91328H48.9233V13.8681H39.0136ZM49.8735 13.8681V12.2844L51.2763 12.0129V2.55567L49.8735 2.28417V0.691384H55.3216V2.28417L53.9189 2.55567V12.0129L55.3216 12.2844V13.8681H49.8735ZM56.3352 13.8681V12.2844L57.7379 12.0129V2.55567L56.3352 2.28417V0.691384H57.7379H60.4167L66.1544 9.83183L66.2087 9.82278V2.55567L64.5254 2.28417V0.691384H68.5707H69.9825V2.28417L68.5707 2.55567V13.8681H66.0186L60.1543 4.81816L60.1 4.82721V12.0129L61.7923 12.2844V13.8681H56.3352ZM70.8513 13.8681V12.2844L72.2541 12.0129V2.55567L70.8513 2.28417V0.691384H81.0777V4.24801H79.0506L78.9329 2.72762H74.8966V6.0399H79.3583V8.07614H74.8966V11.8409H79.1501L79.2678 10.2662H81.2768V13.8681H70.8513Z" fill="#101010" fill-opacity="0.45"/>
</svg>
