<svg width="32" height="32" viewBox="0 0 32 32" fill="none" xmlns="http://www.w3.org/2000/svg">
<path d="M14.2486 11.7973C14.5421 11.5641 14.8907 11.3946 15.2644 11.2886V14.8988C14.8836 14.7907 14.5359 14.6185 14.2486 14.3902C13.7401 13.9862 13.5433 13.5109 13.5433 13.0937C13.5433 12.6766 13.7401 12.2013 14.2486 11.7973Z" fill="white"/>
<path d="M17.2019 20.7296V17.0828C17.6504 17.1919 18.0593 17.3766 18.392 17.6262C18.9428 18.0393 19.1394 18.5121 19.1394 18.9062C19.1394 19.3003 18.9428 19.7731 18.392 20.1863C18.0593 20.4358 17.6504 20.6205 17.2019 20.7296Z" fill="white"/>
<path fill-rule="evenodd" clip-rule="evenodd" d="M16.2332 3.40625C9.27782 3.40625 3.6394 9.04466 3.6394 16C3.6394 22.9553 9.27782 28.5938 16.2332 28.5938C23.1885 28.5938 28.8269 22.9553 28.8269 16C28.8269 9.04466 23.1885 3.40625 16.2332 3.40625ZM17.2019 8.25C17.2019 7.71497 16.7682 7.28125 16.2332 7.28125C15.6981 7.28125 15.2644 7.71497 15.2644 8.25V9.30352C14.4547 9.44698 13.6825 9.77253 13.0435 10.2802C12.1234 11.0111 11.6058 12.0233 11.6058 13.0937C11.6058 14.1642 12.1234 15.1764 13.0435 15.9073C13.6925 16.4229 14.467 16.7427 15.2644 16.8839V20.7295C14.816 20.6204 14.4072 20.4357 14.0746 20.1863L12.9394 19.3348C12.5114 19.0138 11.9042 19.1005 11.5832 19.5285C11.2621 19.9566 11.3489 20.5638 11.7769 20.8848L12.9121 21.7362C13.6008 22.2528 14.4222 22.5689 15.2644 22.7042V23.75C15.2644 24.285 15.6981 24.7188 16.2332 24.7188C16.7682 24.7188 17.2019 24.285 17.2019 23.75V22.7042C18.0443 22.5689 18.8657 22.2529 19.5545 21.7362C20.5169 21.0144 21.0769 19.9996 21.0769 18.9062C21.0769 17.8128 20.5169 16.798 19.5545 16.0762C18.8657 15.5596 18.0443 15.2435 17.2019 15.1082V11.2887C17.5754 11.3947 17.9239 11.5642 18.2173 11.7973L18.7532 12.223C19.1721 12.5558 19.7815 12.4859 20.1143 12.067C20.4471 11.6481 20.3773 11.0387 19.9584 10.7059L19.4225 10.2802C18.7835 9.77261 18.0115 9.44707 17.2019 9.30358V8.25Z" fill="white"/>
</svg>
