<svg width="32" height="32" viewBox="0 0 32 32" fill="none" xmlns="http://www.w3.org/2000/svg">
<path d="M15.315 5.46123C15.6933 5.08291 16.3067 5.08291 16.685 5.46123L27.9087 16.685C28.2871 17.0633 28.9004 17.0633 29.2788 16.685C29.6571 16.3066 29.6571 15.6933 29.2788 15.3149L18.055 4.09121C16.9201 2.95625 15.0799 2.95625 13.945 4.09121L2.72124 15.3149C2.34292 15.6933 2.34292 16.3066 2.72124 16.685C3.09956 17.0633 3.71294 17.0633 4.09126 16.685L15.315 5.46123Z" fill="white"/>
<path d="M16 7.51626L26.5387 18.055C26.5771 18.0934 26.6163 18.1305 26.6562 18.1663V26.1718C26.6562 27.5094 25.5719 28.5937 24.2344 28.5937H19.875C19.34 28.5937 18.9062 28.16 18.9062 27.6249V21.8124C18.9062 21.2774 18.4725 20.8437 17.9375 20.8437H14.0625C13.5275 20.8437 13.0938 21.2774 13.0938 21.8124V27.6249C13.0938 28.16 12.66 28.5937 12.125 28.5937H7.76562C6.42806 28.5937 5.34375 27.5094 5.34375 26.1718V18.1663C5.3837 18.1305 5.42289 18.0934 5.46128 18.055L16 7.51626Z" fill="white"/>
</svg>
