<svg width="32" height="32" viewBox="0 0 32 32" fill="none" xmlns="http://www.w3.org/2000/svg">
<path fill-rule="evenodd" clip-rule="evenodd" d="M16 2.4375C13.5188 2.4375 11.0707 2.58106 8.66362 2.8604C6.72949 3.08487 5.34375 4.74599 5.34375 6.64444V28.5938C5.34375 28.9152 5.50321 29.2157 5.76939 29.3959C6.03558 29.5762 6.37382 29.6126 6.67228 29.4932L11.1562 27.6996L15.6402 29.4932C15.8712 29.5856 16.1288 29.5856 16.3598 29.4932L20.8438 27.6996L25.3277 29.4932C25.6262 29.6126 25.9644 29.5762 26.2306 29.3959C26.4968 29.2157 26.6562 28.9152 26.6562 28.5938V6.64444C26.6562 4.74599 25.2705 3.08487 23.3364 2.8604C20.9293 2.58106 18.4812 2.4375 16 2.4375ZM20.56 11.8413C20.9383 11.4629 20.9383 10.8496 20.56 10.4712C20.1817 10.0929 19.5683 10.0929 19.19 10.4712L11.44 18.2212C11.0617 18.5996 11.0617 19.2129 11.44 19.5913C11.8183 19.9696 12.4317 19.9696 12.81 19.5913L20.56 11.8413ZM11.6406 12.125C11.6406 11.3225 12.2912 10.6719 13.0938 10.6719C13.8963 10.6719 14.5469 11.3225 14.5469 12.125C14.5469 12.9275 13.8963 13.5781 13.0938 13.5781C12.2912 13.5781 11.6406 12.9275 11.6406 12.125ZM18.9062 16.4844C18.1037 16.4844 17.4531 17.135 17.4531 17.9375C17.4531 18.74 18.1037 19.3906 18.9062 19.3906C19.7088 19.3906 20.3594 18.74 20.3594 17.9375C20.3594 17.135 19.7088 16.4844 18.9062 16.4844Z" fill="white"/>
</svg>
