<svg width="32" height="32" viewBox="0 0 32 32" fill="none" xmlns="http://www.w3.org/2000/svg">
<path d="M22.6965 13.9422C22.8753 14.5041 22.4179 15.0304 21.8283 15.0304H17.3527C17.0066 15.0304 16.6868 14.8457 16.5138 14.546L14.2756 10.6698C13.9806 10.1589 14.208 9.49941 14.7845 9.37394C15.2513 9.27237 15.736 9.21886 16.2332 9.21886C19.2609 9.21886 21.8252 11.2031 22.6965 13.9422Z" fill="white"/>
<path d="M11.2207 11.4327C11.6184 10.9965 12.3035 11.1291 12.5987 11.6403L14.8358 15.5148C15.0089 15.8145 15.0089 16.1838 14.8358 16.4835L12.5981 20.3593C12.303 20.8706 11.6178 21.0031 11.2201 20.5668C10.1217 19.3618 9.45194 17.7592 9.45194 16.0001C9.45194 14.2407 10.1219 12.6379 11.2207 11.4327Z" fill="white"/>
<path d="M14.7836 22.6261C14.2071 22.5005 13.9798 21.8412 14.2748 21.3302L16.5138 17.4522C16.6868 17.1525 17.0066 16.9679 17.3527 16.9679H21.8289C22.4184 16.9679 22.8758 17.494 22.6972 18.0558C21.8266 20.796 19.2617 22.7814 16.2332 22.7814C15.7357 22.7814 15.2507 22.7278 14.7836 22.6261Z" fill="white"/>
<path fill-rule="evenodd" clip-rule="evenodd" d="M27.8591 16.9679C28.3942 16.9679 28.8279 16.5341 28.8279 15.9991C28.8279 15.4641 28.3942 15.0304 27.8591 15.0304H26.8469C26.7929 14.4308 26.6892 13.8456 26.54 13.2789L27.4891 12.9335C27.9919 12.7505 28.2511 12.1946 28.0681 11.6918C27.8851 11.189 27.3292 10.9298 26.8265 11.1128L25.8773 11.4583C25.6229 10.9191 25.3247 10.4047 24.9872 9.91969L25.7619 9.26962C26.1718 8.92571 26.2252 8.31467 25.8813 7.90481C25.5374 7.49496 24.9264 7.4415 24.5165 7.78541L23.7411 8.43603C23.3205 8.01847 22.8652 7.63575 22.3799 7.29259L22.8855 6.41695C23.153 5.9536 22.9942 5.36112 22.5309 5.09361C22.0675 4.8261 21.4751 4.98485 21.2075 5.4482L20.7029 6.32231C20.1682 6.07499 19.6096 5.87068 19.0315 5.71381L19.2067 4.7199C19.2996 4.193 18.9478 3.69055 18.4209 3.59764C17.894 3.50474 17.3915 3.85656 17.2986 4.38345L17.123 5.37941C16.8299 5.35521 16.5335 5.34287 16.2341 5.34287C15.9348 5.34287 15.6382 5.35523 15.345 5.37948L15.1694 4.38351C15.0765 3.85661 14.574 3.50479 14.0471 3.5977C13.5202 3.6906 13.1684 4.19305 13.2613 4.71995L13.4366 5.71411C12.8587 5.87098 12.3001 6.07525 11.7655 6.32253L11.2605 5.44797C10.993 4.98463 10.4005 4.8259 9.93715 5.09343C9.47382 5.36096 9.31509 5.95345 9.58262 6.41678L10.0884 7.29271C9.60335 7.63569 9.14818 8.01827 8.72758 8.43574L7.95159 7.78461C7.54174 7.4407 6.93069 7.49416 6.58679 7.90401C6.24288 8.31387 6.29634 8.92491 6.70619 9.26882L7.48147 9.91936C7.14384 10.4045 6.84547 10.9191 6.59101 11.4586L5.64159 11.113C5.13883 10.93 4.58292 11.1892 4.39993 11.692C4.21694 12.1948 4.47617 12.7507 4.97893 12.9337L5.92821 13.2792C5.77904 13.8458 5.67536 14.4309 5.62133 15.0304H4.60913C4.07411 15.0304 3.64038 15.4641 3.64038 15.9991C3.64038 16.5341 4.07411 16.9679 4.60913 16.9679H5.62132C5.67534 17.5673 5.77901 18.1525 5.92817 18.7192L4.97861 19.0648C4.47585 19.2478 4.21662 19.8037 4.39961 20.3064C4.5826 20.8092 5.13851 21.0684 5.64127 20.8854L6.59092 20.5398C6.84541 21.0793 7.14386 21.5941 7.48163 22.0794L6.706 22.7302C6.29614 23.0741 6.24268 23.6852 6.58659 24.095C6.9305 24.5049 7.54154 24.5583 7.9514 24.2144L8.72783 23.5629C9.14848 23.9804 9.60376 24.363 10.089 24.7061L9.58254 25.5833C9.31503 26.0466 9.47379 26.6391 9.93713 26.9066C10.4005 27.1741 10.993 27.0154 11.2605 26.552L11.7661 25.6763C12.3006 25.9234 12.859 26.1277 13.4369 26.2845L13.2613 27.2802C13.1684 27.8071 13.5202 28.3096 14.0471 28.4025C14.574 28.4954 15.0765 28.1436 15.1694 27.6167L15.3453 26.6188C15.6384 26.643 15.9348 26.6554 16.2341 26.6554C16.5334 26.6554 16.8297 26.643 17.1227 26.6189L17.2986 27.6167C17.3916 28.1436 17.894 28.4955 18.4209 28.4025C18.9478 28.3096 19.2996 27.8072 19.2067 27.2803L19.0311 26.2845C19.6091 26.1277 20.1676 25.9235 20.7021 25.6763L21.2076 26.5518C21.4751 27.0152 22.0676 27.1739 22.5309 26.9064C22.9943 26.6389 23.153 26.0464 22.8855 25.5831L22.3792 24.7061C22.8646 24.3629 23.32 23.9802 23.7408 23.5626L24.5167 24.2136C24.9266 24.5575 25.5376 24.5041 25.8815 24.0942C26.2254 23.6844 26.172 23.0733 25.7621 22.7294L24.9869 22.079C25.3245 21.5938 25.6228 21.0793 25.8772 20.54L26.8268 20.8856C27.3295 21.0686 27.8854 20.8094 28.0684 20.3066C28.2514 19.8039 27.9922 19.248 27.4894 19.065L26.54 18.7194C26.6892 18.1526 26.7929 17.5674 26.8469 16.9679H27.8591ZM24.4268 13.0171C24.419 12.9957 24.412 12.9741 24.4058 12.9524C24.0598 12.025 23.5605 11.1722 22.9386 10.4251C22.9299 10.4155 22.9213 10.4056 22.9129 10.3956C22.9047 10.3858 22.8967 10.3759 22.8889 10.3658C22.2556 9.61849 21.4988 8.97926 20.6499 8.47967C20.6309 8.47028 20.612 8.46022 20.5934 8.44946C20.5742 8.43841 20.5556 8.42681 20.5375 8.41468C19.7054 7.94152 18.7878 7.60135 17.8136 7.42308C17.7918 7.42074 17.7699 7.41764 17.748 7.41377C17.7268 7.41003 17.7058 7.40562 17.6852 7.40057C17.2132 7.32151 16.7285 7.28037 16.2341 7.28037C15.7402 7.28037 15.2561 7.32136 14.785 7.40011C14.7636 7.40537 14.742 7.40996 14.72 7.41383C14.6973 7.41783 14.6747 7.42101 14.6521 7.42338C13.6563 7.60577 12.7204 7.95725 11.8744 8.44678C10.9988 8.95347 10.2198 9.60767 9.57117 10.3753C9.56595 10.3818 9.56063 10.3884 9.55521 10.3948C9.55246 10.3981 9.54969 10.4013 9.54691 10.4046C9.54399 10.408 9.54106 10.4113 9.53811 10.4147C8.91199 11.1646 8.40966 12.0211 8.06221 12.9529C8.05601 12.9745 8.04903 12.9959 8.04124 13.0173C8.03345 13.0387 8.02499 13.0597 8.01588 13.0802C7.69174 13.9929 7.51538 14.9755 7.51538 15.9991C7.51538 17.0252 7.69262 18.0098 8.01814 18.9241C8.02627 18.9427 8.03387 18.9617 8.04092 18.9811C8.04796 19.0004 8.05434 19.0198 8.06007 19.0393C8.76732 20.9401 10.1186 22.5275 11.8487 23.5363C11.8536 23.5389 11.8585 23.5416 11.8633 23.5443C11.8671 23.5465 11.8709 23.5486 11.8746 23.5508C11.8837 23.556 11.8926 23.5614 11.9015 23.5668C12.7512 24.0544 13.6909 24.403 14.6896 24.5815C14.6997 24.5829 14.7099 24.5846 14.72 24.5864C14.7295 24.588 14.7389 24.5898 14.7482 24.5918C15.2311 24.6747 15.7276 24.7179 16.2341 24.7179C16.7407 24.7179 17.2373 24.6747 17.7202 24.5917C17.7294 24.5898 17.7387 24.5881 17.748 24.5864C17.758 24.5846 17.7681 24.583 17.7781 24.5816C18.7745 24.4035 19.7123 24.0562 20.5606 23.5704C20.5714 23.5636 20.5823 23.557 20.5934 23.5506C20.6041 23.5444 20.6148 23.5385 20.6256 23.5328C21.4902 23.0277 22.2601 22.378 22.902 21.6169L22.9131 21.6034L22.925 21.5895C23.5542 20.8372 24.0589 19.9772 24.4075 19.0412C24.4133 19.0212 24.4199 19.0012 24.4271 18.9813C24.4344 18.9614 24.4422 18.9418 24.4507 18.9226C24.7758 18.0087 24.9529 17.0246 24.9529 15.9991C24.9529 14.9754 24.7764 13.9929 24.4523 13.0804C24.4432 13.0597 24.4346 13.0387 24.4268 13.0171Z" fill="white"/>
</svg>
